# File created by Blade
# Date/Time:  Thu Jan 15 19:03:44 2015
#---------------------------------------------------------
:version 1.10
:name HOM
:units
  mass 1.0
  length 1.000000
  angle deg
:documentation
     Acclaim Skeleton File
:root
   axis xyz
   order TX TY TZ RX RY RZ
   position 0.000000 0.000000 0.000000
   orientation 0 0 0
:bonedata
   begin
      id 1
      name Spine_dum
      direction 0.000000 1.000000 0.000000
      length 4.354460
      axis 0.0 0.0 0.0 xyz
   end
   begin
      id 2
      name LeftUpLeg_dum
      direction 1.000000 0.000000 0.000000
      length 4.291077
      axis 0.0 0.0 0.0 xyz
   end
   begin
      id 3
      name RightUpLeg_dum
      direction -1.000000 0.000000 0.000000
      length 4.291077
      axis 0.0 0.0 0.0 xyz
   end
   begin
      id 4
      name Spine
      direction 0.000000 1.000000 0.000000
      length 0.000000
      axis 0.0 0.0 0.0 xyz
      dof rx ry rz
   end
   begin
      id 5
      name Spine_dum1
      direction 0.000000 1.000000 0.000000
      length 16.581769
      axis 0.0 0.0 0.0 xyz
   end
   begin
      id 6
      name Spine_dum2
      direction 0.000000 1.000000 0.000000
      length 12.903700
      axis 0.0 0.0 0.0 xyz
   end
   begin
      id 7
      name Spine_dum3
      direction 0.000000 1.000000 0.000000
      length 12.903700
      axis 0.0 0.0 0.0 xyz
   end
   begin
      id 8
      name Head
      direction 0.000000 1.000000 0.000000
      length 4.527550
      axis 0.0 0.0 0.0 xyz
      dof rx ry rz
   end
   begin
      id 9
      name LeftShoulder
      direction 1.000000 0.000000 0.000000
      length 6.942033
      axis 0.0 0.0 -90.0 xyz
      dof rx ry rz
   end
   begin
      id 10
      name LeftArm
      direction 1.000000 0.000000 0.000000
      length 11.010391
      axis 0.0 0.0 -90.0 xyz
      dof rx ry rz
   end
   begin
      id 11
      name LeftForeArm
      direction 1.000000 0.000000 0.000000
      length 8.054994
      axis 0.0 0.0 -90.0 xyz
      dof rz ry rx
   end
   begin
      id 12
      name LeftHand
      direction 0.000000 0.000000 0.000000
      length 0.000000
      axis 0.0 0.0 -90.0 xyz
      dof rx ry rz
   end
   begin
      id 13
      name LeftHand_dum1
      direction 0.000000 0.000000 0.000000
      length 0.000000
      axis 0.0 0.0 -90.0 xyz
   end
   begin
      id 14
      name LeftHand_dum2
      direction 1.000000 0.000000 0.000000
      length 3.937000
      axis 0.0 0.0 -90.0 xyz
   end
   begin
      id 15
      name LeftHandThumb1
      direction 0.000000 0.000000 1.000000
      length 3.937000
      axis 0.0 0.0 -90.0 xyz
      dof rx ry rz
   end
   begin
      id 16
      name RightShoulder
      direction -1.000000 0.000000 0.000000
      length 6.942033
      axis 0.0 0.0 90.0 xyz
      dof rx ry rz
   end
   begin
      id 17
      name RightArm
      direction -1.000000 0.000000 0.000000
      length 11.010391
      axis 0.0 0.0 90.0 xyz
      dof rx ry rz
   end
   begin
      id 18
      name RightForeArm
      direction -1.000000 0.000000 0.000000
      length 8.054994
      axis 0.0 0.0 90.0 xyz
      dof rz ry rx
   end
   begin
      id 19
      name RightHand
      direction 0.000000 0.000000 0.000000
      length 0.000000
      axis 0.0 0.0 90.0 xyz
      dof rx ry rz
   end
   begin
      id 20
      name RightHand_dum1
      direction 0.000000 0.000000 0.000000
      length 0.000000
      axis 0.0 0.0 90.0 xyz
   end
   begin
      id 21
      name RightHand_dum2
      direction -1.000000 0.000000 0.000000
      length 3.937000
      axis 0.0 0.0 90.0 xyz
   end
   begin
      id 22
      name RightHandThumb1
      direction 0.000000 0.000000 1.000000
      length 3.937000
      axis 0.0 0.0 90.0 xyz
      dof rx ry rz
   end
   begin
      id 23
      name LeftUpLeg
      direction 0.000000 -1.000000 0.000000
      length 17.039958
      axis 0.0 0.0 0.0 xyz
      dof rx ry rz
   end
   begin
      id 24
      name LeftLeg
      direction 0.000000 -1.000000 0.000000
      length 16.939743
      axis 0.0 0.0 0.0 xyz
      dof rx ry rz
   end
   begin
      id 25
      name LeftFoot
      direction 0.000000 -0.258819 0.965926
      length 5.235044
      axis 15.0 0.0 0.0 xyz
      dof rx ry rz
   end
   begin
      id 26
      name LeftToeBase
      direction 0.000000 0.000000 1.000000
      length 2.952750
      axis 0.0 0.0 0.0 xyz
      dof rx ry rz
   end
   begin
      id 27
      name RightUpLeg
      direction 0.000000 -1.000000 0.000000
      length 17.039958
      axis 0.0 0.0 0.0 xyz
      dof rx ry rz
   end
   begin
      id 28
      name RightLeg
      direction 0.000000 -1.000000 0.000000
      length 16.939743
      axis 0.0 0.0 0.0 xyz
      dof rx ry rz
   end
   begin
      id 29
      name RightFoot
      direction 0.000000 -0.258819 0.965926
      length 5.235044
      axis 15.0 0.0 0.0 xyz
      dof rx ry rz
   end
   begin
      id 30
      name RightToeBase
      direction 0.000000 0.000000 1.000000
      length 2.952750
      axis 0.0 0.0 0.0 xyz
      dof rx ry rz
   end
:hierarchy
   begin
      root Spine_dum LeftUpLeg_dum RightUpLeg_dum
      Spine_dum Spine
      LeftUpLeg_dum LeftUpLeg
      RightUpLeg_dum RightUpLeg
      Spine Spine_dum1 Spine_dum2 Spine_dum3
      Spine_dum1 Head
      Spine_dum2 LeftShoulder
      Spine_dum3 RightShoulder
      LeftShoulder LeftArm
      LeftArm LeftForeArm
      LeftForeArm LeftHand
      LeftHand LeftHand_dum1 LeftHand_dum2
      LeftHand_dum1 LeftHandThumb1
      RightShoulder RightArm
      RightArm RightForeArm
      RightForeArm RightHand
      RightHand RightHand_dum1 RightHand_dum2
      RightHand_dum1 RightHandThumb1
      LeftUpLeg LeftLeg
      LeftLeg LeftFoot
      LeftFoot LeftToeBase
      RightUpLeg RightLeg
      RightLeg RightFoot
      RightFoot RightToeBase
   end

# File created by Blade
# Date/Time:  Thu Jan 15 19:03:33 2015
# Frame Rate: 120.000 fps
#------------------------------------------------------
:FULLY-SPECIFIED
:DEGREES
98
root 2.215482 35.763372 -10.658543 -177.058698 3.559802 -179.736559
Spine -10.762583 15.062149 -2.929771
Head -1.875139 -12.986757 5.242195
LeftShoulder 10.672634 -8.851553 19.007643
LeftArm 89.714843 3.963459 -31.214707
LeftForeArm -0.000000 25.357280 10.904465
LeftHand 5.006410 0.000000 -3.085788
LeftHandThumb1 -26.253704 33.147579 0.000000
RightShoulder 0.947402 18.973908 -23.879852
RightArm 62.190457 -11.514695 55.047637
RightForeArm -0.000000 -50.626707 18.604126
RightHand -1.060543 -0.000000 1.624722
RightHandThumb1 -24.326973 -32.862282 -0.000000
LeftUpLeg 2.833905 13.808217 -2.276063
LeftLeg -3.015664 -0.000000 0.000000
LeftFoot -15.939709 23.153688 -10.528175
LeftToeBase 20.068913 -0.000000 -0.000000
RightUpLeg 1.771707 -7.191842 -0.472852
RightLeg -2.557701 -0.000000 0.000000
RightFoot -13.442496 -27.881222 7.568351
RightToeBase 20.211799 -0.000000 -0.000000
99
root 2.209320 35.766057 -10.678388 -177.021642 3.545492 -179.756617
Spine -10.961211 15.059178 -3.008112
Head -1.551794 -12.967342 5.275712
LeftShoulder 10.344959 -9.278052 19.708935
LeftArm 90.209448 2.155345 -30.353068
LeftForeArm 0.000000 24.869892 11.039948
LeftHand 5.173388 -0.000000 -1.837313
LeftHandThumb1 -26.253704 33.147579 0.000000
RightShoulder 0.711858 19.593882 -24.806527
RightArm 62.855004 -10.627825 53.730890
RightForeArm -0.000000 -49.920130 18.987994
RightHand -2.424024 -0.000000 1.071506
RightHandThumb1 -24.326973 -32.862282 -0.000000
LeftUpLeg 2.818859 13.803835 -2.308138
LeftLeg -3.001498 -0.000000 0.000000
LeftFoot -15.944974 23.115870 -10.612551
LeftToeBase 20.004046 -0.000000 -0.000000
RightUpLeg 1.757493 -7.240554 -0.502385
RightLeg -2.538024 -0.000000 0.000000
RightFoot -13.482077 -27.830483 7.625930
RightToeBase 20.159844 -0.000000 -0.000000
100
root 2.202798 35.768810 -10.698976 -176.973648 3.532544 -179.775119
Spine -11.159230 15.034116 -3.068254
Head -1.241769 -12.904775 5.291843
LeftShoulder 9.946401 -9.995350 20.461367
LeftArm 90.408961 0.664495 -30.046361
LeftForeArm -0.000000 24.806125 11.154870
LeftHand 5.315342 -0.000000 -0.811766
LeftHandThumb1 -26.253704 33.147579 0.000000
RightShoulder 0.470126 20.248527 -25.815835
RightArm 63.160671 -9.269409 53.387208
RightForeArm -0.000000 -49.886310 19.375044
RightHand -2.523663 -0.000000 1.307348
RightHandThumb1 -24.326973 -32.862282 -0.000000
LeftUpLeg 2.791744 13.794331 -2.340660
LeftLeg -2.981429 -0.000000 0.000000
LeftFoot -15.963911 23.070517 -10.705331
LeftToeBase 19.986693 -0.000000 -0.000000
RightUpLeg 1.725826 -7.292835 -0.529995
RightLeg -2.506175 -0.000000 0.000000
RightFoot -13.518523 -27.779233 7.686403
RightToeBase 20.188068 -0.000000 -0.000000
101
root 2.196870 35.770798 -10.720900 -176.930974 3.521649 -179.785875
Spine -11.350574 14.987578 -3.083467
Head -0.891054 -12.828264 5.217536
LeftShoulder 9.596443 -10.077673 21.095321
LeftArm 90.765036 -1.426393 -29.533164
LeftForeArm 0.000000 24.746576 11.177188
LeftHand 5.544165 -0.000000 0.126791
LeftHandThumb1 -26.253704 33.147579 0.000000
RightShoulder 0.175608 21.213666 -26.998974
RightArm 63.172768 -8.103735 53.445958
RightForeArm -0.000000 -50.111712 19.464605
RightHand -2.390455 -0.000000 1.094092
RightHandThumb1 -24.326973 -32.862282 -0.000000
LeftUpLeg 2.775413 13.783745 -2.363300
LeftLeg -2.966352 -0.000000 0.000000
LeftFoot -15.977712 23.047687 -10.755123
LeftToeBase 19.956157 -0.000000 -0.000000
RightUpLeg 1.702305 -7.346269 -0.549307
RightLeg -2.476049 -0.000000 0.000000
RightFoot -13.547162 -27.739596 7.728889
RightToeBase 20.084046 -0.000000 -0.000000
102
root 2.191069 35.772052 -10.742177 -176.876551 3.518199 -179.787008
Spine -11.568108 15.051084 -3.162082
Head -0.543700 -12.862722 5.306055
LeftShoulder 9.358176 -9.946910 21.637069
LeftArm 91.301751 -3.738392 -28.877415
LeftForeArm -0.000000 24.533266 10.965296
LeftHand 6.016044 -0.000000 1.067983
LeftHandThumb1 -26.253704 33.147579 0.000000
RightShoulder -0.214732 21.530899 -27.784985
RightArm 63.922577 -6.753646 52.566477
RightForeArm 0.000000 -50.054790 19.290534
RightHand -2.516896 0.000000 0.494083
RightHandThumb1 -24.326973 -32.862282 -0.000000
LeftUpLeg 2.739901 13.787888 -2.377343
LeftLeg -2.934896 -0.000000 0.000000
LeftFoot -16.019341 23.001325 -10.810419
LeftToeBase 19.923751 -0.000000 -0.000000
RightUpLeg 1.658727 -7.380388 -0.558740
RightLeg -2.431692 -0.000000 0.000000
RightFoot -13.590245 -27.696274 7.792429
RightToeBase 20.117904 -0.000000 -0.000000
